PathFileType	4	(X/Y/Z)	C:\Users\Basilio\Documents\Thesis Gigler\squatting_fais\c3dfiles\044\SJ_pre1\markers_experimental.trc
DataRate	CameraRate	NumFrames	NumMarkers	Units	OrigDataRate	OrigDataStartFrame	OrigNumFrames
200.000000	200.000000	4	63	mm	200.000000	0	1409
Frame#	Time	FHD			LBHD			RBHD			C7			T10			CLAV			LSHO			LUUPA			LMUPA			LDUPA			LLEP			LMEP			LRAD			LUL			LRFIN			RSHO			RUPA1			RMUPA			RDUPA			RLEP			RMEP			RRAD			RUL			RUFIN			LASI			RASI			USACR			LSACR			RSACR			LTHI1			LTHI2			LTHI3			LTHI4			LLFC			LMFC			LTIB1			LTIB2			LTIB3			LTIB4			LLMAL			LMMAL			LHEE			LMT1			LMT2			LMT5			RTHI			RTHI2			RTHI3			RTHI4			RLFC			RMFC			RTIB1			RTIB2			RTIB3			RTIB4			RLMAL			RMMAL			RHEE			RMT1			RMT2			RMT5			*61			*62			
		X1	Y1	Z1	X2	Y2	Z2	X3	Y3	Z3	X4	Y4	Z4	X5	Y5	Z5	X6	Y6	Z6	X7	Y7	Z7	X8	Y8	Z8	X9	Y9	Z9	X10	Y10	Z10	X11	Y11	Z11	X12	Y12	Z12	X13	Y13	Z13	X14	Y14	Z14	X15	Y15	Z15	X16	Y16	Z16	X17	Y17	Z17	X18	Y18	Z18	X19	Y19	Z19	X20	Y20	Z20	X21	Y21	Z21	X22	Y22	Z22	X23	Y23	Z23	X24	Y24	Z24	X25	Y25	Z25	X26	Y26	Z26	X27	Y27	Z27	X28	Y28	Z28	X29	Y29	Z29	X30	Y30	Z30	X31	Y31	Z31	X32	Y32	Z32	X33	Y33	Z33	X34	Y34	Z34	X35	Y35	Z35	X36	Y36	Z36	X37	Y37	Z37	X38	Y38	Z38	X39	Y39	Z39	X40	Y40	Z40	X41	Y41	Z41	X42	Y42	Z42	X43	Y43	Z43	X44	Y44	Z44	X45	Y45	Z45	X46	Y46	Z46	X47	Y47	Z47	X48	Y48	Z48	X49	Y49	Z49	X50	Y50	Z50	X51	Y51	Z51	X52	Y52	Z52	X53	Y53	Z53	X54	Y54	Z54	X55	Y55	Z55	X56	Y56	Z56	X57	Y57	Z57	X58	Y58	Z58	X59	Y59	Z59	X60	Y60	Z60	X61	Y61	Z61	X62	Y62	Z62	X63	Y63	Z63	

1	0	-231.0781555175782	1754.634643554688	-885.130554199219	-360.6574096679688	1723.550048828125	-970.3209228515627	-413.0858459472657	1708.254638671875	-813.4785156250002	-442.2263183593751	1535.760131835938	-902.7812500000002	-474.0593566894532	1233.345458984375	-908.6646118164065	-305.6771545410157	1487.0322265625	-892.0627441406252	-339.6272888183594	1533.51416015625	-1075.361694335938	-414.9240722656251	1361.35498046875	-1220.60400390625	-382.0357666015626	1323.087524414063	-1215.033081054688	-425.8854980468751	1300.232055664063	-1251.669311523438	-424.7915039062501	1241.400390625	-1265.84765625	-491.6385192871095	1233.8935546875	-1213.669189453125	-384.2715454101564	1004.954528808594	-1115.614501953125	-344.8126220703126	992.0550537109377	-1170.835205078125	-327.2713623046876	1014.85400390625	-1082.107543945313	-377.6035156250001	1507.95947265625	-701.5639648437501	-465.751434326172	1343.20751953125	-573.6228637695314	-432.8225097656251	1304.744262695313	-570.8232421875001	-477.7406311035157	1282.664306640625	-539.1542358398439	-472.9501953125001	1221.00390625	-522.8376464843751	-538.4925537109376	1207.76123046875	-579.6741943359376	-394.1547241210939	1009.745788574219	-688.1504516601564	-374.8607788085938	981.6417236328127	-623.5361938476564	-328.4772338867188	1001.742858886719	-720.3574829101564	-286.4826965332032	1029.903686523438	-1015.617309570313	-282.9681091308594	1007.617736816406	-797.677429199219	-452.711395263672	1079.599365234375	-900.7849731445315	-459.5832824707032	1048.047485351563	-927.7265625000002	-456.5383300781251	1050.04638671875	-871.0980224609377	-406.3084716796876	808.0415649414065	-1102.453125	-382.2248229980469	727.1910400390626	-1104.23828125	-335.1147460937501	724.1165771484376	-1094.767700195313	-417.0161437988282	678.0707397460939	-1094.547241210938	-422.7309875488282	517.3937377929689	-1088.58984375	-412.3245849609376	500.5489807128907	-968.450866699219	-401.4125061035157	337.3857421875001	-1035.736206054688	-430.8347473144532	297.5439147949219	-1110.531494140625	-398.9503784179689	293.6558837890626	-1075.981201171875	-411.0008239746095	212.5873413085938	-1053.815307617188	-461.4022216796876	95.22243499755861	-1109.183715820313	-439.8107910156251	99.58235931396487	-1025.245727539063	-516.6864624023439	48.33367156982423	-1063.277709960938	-300.0238342285157	61.09938812255861	-1049.171020507813	-302.8157653808594	61.41368103027345	-1095.762573242188	-339.9338378906251	41.60752105712891	-1141.862426757813	-397.0219726562501	756.1087646484376	-714.2389526367189	-360.8566894531251	699.4560546875001	-709.1830444335939	-328.1569824218751	698.6865234375001	-717.0172729492189	-391.8612365722657	620.8671875000001	-720.4107055664064	-404.6531677246095	506.0285034179689	-724.6515502929689	-413.6260681152345	493.142791748047	-847.7004394531252	-369.7754821777344	375.9455261230469	-742.8809814453126	-442.1586303710939	311.1645812988282	-689.5416870117189	-400.6058349609376	301.2678833007813	-707.7075195312501	-393.697235107422	248.8729095458985	-729.8108520507814	-463.4251098632814	96.22352600097659	-704.6203613281251	-442.9669799804689	99.62459564208987	-786.9609375000002	-516.2149047851564	48.3053550720215	-745.8977050781251	-304.4536437988282	63.01907348632814	-762.9680786132814	-299.9049682617188	60.28168106079103	-726.4946899414064	-334.4785461425782	40.5304298400879	-672.3667602539064	nan	nan	nan	nan	nan	nan	
2	0.005	-231.0291290283204	1754.599731445313	-885.0280761718752	-360.6801147460938	1723.546875	-970.2442016601565	-413.0840454101564	1708.26953125	-813.4519042968752	-442.2199096679689	1535.753173828125	-902.7446289062502	-474.0834960937501	1233.3505859375	-908.6306152343752	-305.6367492675782	1487.065307617188	-892.0128173828127	-339.6220703125001	1533.525390625	-1075.359497070313	-414.881805419922	1361.344970703125	-1220.623046875	-382.0129089355469	1323.145874023438	-1215.03759765625	-425.8173828125001	1300.221313476563	-1251.647705078125	-424.7642211914064	1241.3955078125	-1265.88232421875	-491.6948547363282	1233.9052734375	-1213.659423828125	-384.2310180664064	1004.949645996094	-1115.63037109375	-344.7581787109376	992.083190917969	-1170.84521484375	-327.2415771484376	1014.8505859375	-1082.089233398438	-377.5404052734376	1507.9599609375	-701.5470581054689	-465.7226562500001	1343.202270507813	-573.6286010742189	-432.7848205566407	1304.722045898438	-570.8427124023439	-477.6770324707032	1282.669067382813	-539.1702270507814	-472.9641418457032	1220.974487304688	-522.7981567382814	-538.4725341796876	1207.803955078125	-579.6585083007814	-394.196990966797	1009.748352050781	-688.2067260742189	-374.8462829589844	981.632263183594	-623.5375366210939	-328.4695739746094	1001.723205566406	-720.3865356445314	-286.8254394531251	1029.325805664063	-1015.691223144531	-282.9637451171876	1007.618347167969	-797.671325683594	-452.7142333984376	1079.588256835938	-900.7919921875002	-459.561737060547	1048.052368164063	-927.7060546875002	-456.5228576660157	1050.05517578125	-871.1347656250002	-406.2873535156251	808.0469970703127	-1102.50634765625	-382.2046203613282	727.2127685546876	-1104.285522460938	-335.0971374511719	724.1038208007814	-1094.79638671875	-417.0161437988282	678.0707397460939	-1094.547241210938	-422.7299804687501	517.3991088867189	-1088.558715820313	-412.3206176757814	500.5478515625001	-968.4656982421877	-401.3943786621095	337.4673461914063	-1035.706176757813	-430.782196044922	297.5806884765626	-1110.561279296875	-398.9653930664064	293.6688232421876	-1075.986328125	-411.0269470214845	212.6023101806641	-1053.74658203125	-461.3833618164064	95.24250793457033	-1109.185302734375	-439.8462829589845	99.59741973876956	-1025.245971679688	-516.6864624023439	48.33372116088869	-1063.277709960938	-300.0254211425782	61.1138153076172	-1049.197875976563	-302.8139038085938	61.41367340087892	-1095.761352539063	-339.9151306152344	41.57430648803712	-1141.864135742188	-397.0469665527345	756.1088256835939	-714.2919311523439	-360.8635253906251	699.4558105468751	-709.2173461914064	-328.1788330078126	698.6972656250001	-717.0303955078126	-391.8665466308595	620.8571777343751	-720.4165649414064	-404.6507263183595	506.0142822265626	-724.6444702148439	-413.6156311035157	493.161590576172	-847.6887207031252	-369.8061828613282	375.9507141113282	-742.9058837890626	-442.1576538085939	311.1475524902344	-689.5421142578126	-400.6166992187501	301.2710571289063	-707.6662597656251	-393.7134399414064	248.8818664550782	-729.8280639648439	-463.4369506835939	96.20256805419925	-704.5999145507814	-442.9541931152345	99.67464447021487	-786.9741210937502	-516.2191162109376	48.29512023925783	-745.9092407226564	-304.4805297851563	63.04689407348634	-762.9667968750001	-299.8454284667969	60.37982559204103	-726.4692993164064	-334.4843139648438	40.51242828369141	-672.3409423828126	nan	nan	nan	nan	nan	nan	
3	0.01	-231.0370483398438	1754.593872070313	-885.0323486328127	-360.5923156738282	1723.597900390625	-970.2343750000002	-413.0806884765626	1708.269165039063	-813.4744262695315	-442.1505737304689	1535.743774414063	-902.7424316406252	-474.1125488281251	1233.352905273438	-908.649353027344	-305.6565551757813	1487.111083984375	-892.1016845703127	-339.6008605957032	1533.52783203125	-1075.375366210938	-414.9515686035157	1361.394775390625	-1220.599731445313	-382.6264343261719	1322.838256835938	-1214.412231445313	-425.8683166503907	1300.2353515625	-1251.6845703125	-424.7539062500001	1241.445068359375	-1265.872436523438	-491.6407165527345	1233.957275390625	-1213.661743164063	-384.102508544922	1004.920959472656	-1115.661010742188	-344.7797241210938	992.086608886719	-1170.827880859375	-327.2948913574219	1014.853637695313	-1082.10400390625	-377.5336914062501	1507.967651367188	-701.5197143554689	-465.6796875000001	1343.202514648438	-573.5918579101564	-432.7637939453126	1304.717529296875	-570.8127441406251	-477.594451904297	1282.66357421875	-539.1734619140626	-472.9008789062501	1220.992431640625	-522.7925415039064	-538.4225463867189	1207.794189453125	-579.6627807617189	-394.1022338867189	1009.70166015625	-688.2135620117189	-374.8888549804688	981.6173095703127	-623.5372924804689	-328.4225463867188	1001.724487304688	-720.3898925781251	-286.7561035156251	1029.327392578125	-1015.725158691406	-282.9990234375001	1007.594055175781	-797.7014160156252	-452.7114257812501	1079.599609375	-900.785095214844	-459.6200256347657	1048.065185546875	-927.721130371094	-456.5306396484376	1050.082885742188	-871.1614379882815	-406.2736206054689	808.0590820312502	-1102.496459960938	-382.1975097656251	727.1985473632814	-1104.3046875	-335.0714721679688	724.1384887695314	-1094.790649414063	-417.0437316894532	678.0303955078126	-1094.56494140625	-422.7095336914064	517.4234008789064	-1088.617553710938	-412.3868408203126	500.5824584960939	-968.4392700195315	-401.429412841797	337.4316101074219	-1035.766845703125	-430.7878417968751	297.5768737792969	-1110.537231445313	-398.9483642578126	293.6896667480469	-1075.981689453125	-411.0254821777345	212.5741424560547	-1053.790771484375	-461.408905029297	95.23752593994142	-1109.193603515625	-439.8150939941407	99.58169555664065	-1025.25390625	-516.6864624023439	48.33371734619142	-1063.277709960938	-300.0976867675782	61.10225677490236	-1049.119262695313	-302.8255004882813	61.42689895629884	-1095.760009765625	-339.8896179199219	41.58313751220704	-1141.914184570313	-397.0491333007814	756.1158447265626	-714.2662963867189	-360.8668823242188	699.4568481445314	-709.2106933593751	-328.1954345703126	698.6905517578126	-717.0214233398439	-391.8929748535157	620.8734741210939	-720.4212036132814	-404.6572265625001	506.048797607422	-724.6449584960939	-413.6260681152345	493.142791748047	-847.7004394531252	-369.7747802734376	375.9202880859376	-742.8819580078126	-442.1688537597657	311.1661376953126	-689.5220336914064	-400.620574951172	301.2834472656251	-707.6606445312501	-393.7041320800782	248.8729858398438	-729.8728637695314	-463.4600524902345	96.23628997802737	-704.5859985351564	-442.9425354003907	99.66076660156253	-786.9296875000002	-516.2191162109376	48.29513168334962	-745.9092407226564	-304.4858398437501	63.03977966308595	-762.9697875976564	-299.9153747558594	60.3458938598633	-726.4474487304689	-334.4657592773438	40.54900741577149	-672.3589477539064	nan	nan	nan	nan	nan	nan	
4	0.015	-230.9591522216797	1754.576904296875	-884.9280395507815	-360.5586547851563	1723.663818359375	-970.2234497070315	-413.0893859863282	1708.278076171875	-813.402282714844	-442.1505737304689	1535.743774414063	-902.7424316406252	-474.0532531738282	1233.364868164063	-908.6657714843752	-305.6033630371094	1487.11669921875	-892.026306152344	-339.6163940429688	1533.538818359375	-1075.359008789063	-414.8626708984376	1361.40283203125	-1220.619262695313	-382.0410461425782	1323.109252929688	-1215.031616210938	-425.8328247070314	1300.25439453125	-1251.65869140625	-424.7539672851564	1241.461059570313	-1265.897094726563	-491.6407775878907	1233.957275390625	-1213.661743164063	-384.2036743164064	1004.965576171875	-1115.650390625	-344.7476501464844	992.079284667969	-1170.8291015625	-327.2835388183594	1014.852905273438	-1082.121704101563	-377.4923706054688	1507.954467773438	-701.5037231445314	-465.6429748535157	1343.217651367188	-573.6042480468751	-432.6948242187501	1304.7177734375	-570.8884887695314	-477.5858764648439	1282.707641601563	-539.1771240234376	-472.8738708496095	1220.971069335938	-522.7908325195314	-538.3937377929689	1207.767211914063	-579.6895141601564	-394.1063842773439	1009.697692871094	-688.2169799804689	-374.8684997558594	981.651062011719	-623.5827026367189	-328.4214477539063	1001.712280273438	-720.3938598632814	-286.7581176757813	1029.364624023438	-1015.730163574219	-282.9926757812501	1007.599975585938	-797.6904296875002	-452.7122497558595	1079.610717773438	-900.7962646484377	-459.5911865234376	1048.07373046875	-927.7249145507815	-456.5253906250001	1050.072509765625	-871.160827636719	-406.3164367675782	808.0256347656252	-1102.521240234375	-382.1975097656251	727.1985473632814	-1104.3046875	-335.1325073242188	724.0982055664064	-1094.76904296875	-417.0161437988282	678.0707397460939	-1094.547241210938	-422.7073059082032	517.4153442382814	-1088.589599609375	-412.3716430664064	500.5543212890626	-968.5132446289065	-401.3938598632814	337.4486389160157	-1035.735229492188	-430.7684631347657	297.5578613281251	-1110.53857421875	-398.9829406738282	293.6765136718751	-1076.01171875	-410.995086669922	212.6092987060547	-1053.756103515625	-461.382049560547	95.23092651367189	-1109.18408203125	-439.8343505859376	99.56666564941409	-1025.242065429688	-516.7478637695314	48.36103439331056	-1063.276123046875	-300.0145263671876	61.1067237854004	-1049.203369140625	-302.8135375976563	61.42540359497072	-1095.751586914063	-339.8540039062501	41.63346862792969	-1141.910400390625	-397.0346679687501	756.1191406250001	-714.2706909179689	-360.8965148925782	699.4419555664064	-709.2781372070314	-328.1765441894532	698.6935424804689	-717.0691528320314	-391.9135742187501	620.8598632812501	-720.4385375976564	-404.6641540527345	506.036102294922	-724.6598510742189	-413.6767578125001	493.1241760253907	-847.7106933593752	-369.7979431152344	375.9405822753907	-742.9057617187501	-442.1927795410157	311.1534729003907	-689.5410766601564	-400.6216735839845	301.2878112792969	-707.6693725585939	-393.7134399414064	248.8818664550782	-729.8280639648439	-463.4357299804689	96.22978210449222	-704.6102905273439	-443.0132751464845	99.69676208496097	-786.9581298828127	-516.2128295898439	48.30944061279298	-745.9057006835939	-304.4170837402344	63.03010559082033	-762.9547119140626	-299.9491577148438	60.31436157226564	-726.4451293945314	-334.4694824218751	40.53403854370118	-672.3272705078126	nan	nan	nan	nan	nan	nan	
